<?xml version="1.0" encoding="UTF-8" standalone="no"?>
<!DOCTYPE svg PUBLIC "-//W3C//DTD SVG 1.1//EN" "http://www.w3.org/Graphics/SVG/1.1/DTD/svg11.dtd">
<svg width="100%" height="100%" viewBox="0 0 3508 4961" version="1.1" xmlns="http://www.w3.org/2000/svg" xmlns:xlink="http://www.w3.org/1999/xlink" xml:space="preserve" xmlns:serif="http://www.serif.com/" style="fill-rule:evenodd;clip-rule:evenodd;stroke-linejoin:round;stroke-miterlimit:2;">
    <g transform="matrix(1,0,0,1,-1249,-1046.9)">
        <g transform="matrix(0.143433,-0.98966,0.98966,0.143433,-1537.14,4403.51)">
            <text x="1775.3px" y="3089.74px" style="font-family:'Ubuntu-Regular', 'Ubuntu', sans-serif;font-size:500px;fill:rgb(56,56,56);">H</text>
        </g>
        <g transform="matrix(0.382014,-0.924157,0.924157,0.382014,-1400.45,3387.54)">
            <text x="1832.69px" y="2740.9px" style="font-family:'Ubuntu-Regular', 'Ubuntu', sans-serif;font-size:500px;fill:rgb(56,56,56);">a</text>
        </g>
        <g transform="matrix(0.571076,-0.820897,0.820897,0.571076,-1222.61,2659.96)">
            <text x="1934.08px" y="2499.93px" style="font-family:'Ubuntu-Regular', 'Ubuntu', sans-serif;font-size:500px;fill:rgb(56,56,56);">c</text>
        </g>
        <g transform="matrix(0.728867,-0.684655,0.684655,0.728867,-1019.02,2038.55)">
            <text x="2064.33px" y="2305.88px" style="font-family:'Ubuntu-Regular', 'Ubuntu', sans-serif;font-size:500px;fill:rgb(56,56,56);">k</text>
        </g>
        <g transform="matrix(0.846186,-0.532887,0.532887,0.846186,-786.085,1528.69)">
            <text x="2255.02px" y="2126.04px" style="font-family:'Ubuntu-Regular', 'Ubuntu', sans-serif;font-size:500px;fill:rgb(56,56,56);">y</text>
        </g>
        <g transform="matrix(0.977065,-0.212942,0.212942,0.977065,-354.391,592.039)">
            <text x="2571.21px" y="1941.2px" style="font-family:'Ubuntu-Regular', 'Ubuntu', sans-serif;font-size:500px;fill:rgb(56,56,56);">H</text>
        </g>
        <g transform="matrix(0.998714,0.0506954,-0.0506954,0.998714,98.5499,-145.53)">
            <text x="2918.11px" y="1869.94px" style="font-family:'Ubuntu-Regular', 'Ubuntu', sans-serif;font-size:500px;fill:rgb(56,56,56);">o</text>
        </g>
        <g transform="matrix(0.958416,0.285373,-0.285373,0.958416,671.742,-838.684)">
            <text x="3213.67px" y="1885.62px" style="font-family:'Ubuntu-Regular', 'Ubuntu', sans-serif;font-size:500px;fill:rgb(56,56,56);">u</text>
        </g>
        <g transform="matrix(0.8757,0.482855,-0.482855,0.8757,1385.35,-1439.43)">
            <text x="3488.48px" y="1971.05px" style="font-family:'Ubuntu-Regular', 'Ubuntu', sans-serif;font-size:500px;fill:rgb(56,56,56);">r</text>
        </g>
        <g transform="matrix(0.693289,0.72066,-0.72066,0.693289,2684.27,-2057.41)">
            <text x="3759.22px" y="2124.82px" style="font-family:'Ubuntu-Regular', 'Ubuntu', sans-serif;font-size:500px;fill:rgb(56,56,56);">U</text>
        </g>
        <g transform="matrix(0.421219,0.906959,-0.906959,0.421219,4468.57,-2263.41)">
            <text x="4007.68px" y="2369.45px" style="font-family:'Ubuntu-Regular', 'Ubuntu', sans-serif;font-size:500px;fill:rgb(56,56,56);">W</text>
        </g>
        <g transform="matrix(0.112156,0.993691,-0.993691,0.112156,6492.47,-1689.33)">
            <text x="4191.6px" y="2788.58px" style="font-family:'Ubuntu-Regular', 'Ubuntu', sans-serif;font-size:500px;fill:rgb(56,56,56);">A</text>
        </g>
    </g>
    <g transform="matrix(1,0,0,1,-1577.35,-1375.25)">
        <g transform="matrix(0.392607,0.919706,-0.919706,0.392607,4802.69,675.666)">
            <text x="1889.8px" y="3973.92px" style="font-family:'Ubuntu-Regular', 'Ubuntu', sans-serif;font-size:229.167px;fill:rgb(116,116,116);">f</text>
        </g>
        <g transform="matrix(0.452367,0.891832,-0.891832,0.452367,4670.14,505.559)">
            <text x="1923.41px" y="4055.49px" style="font-family:'Ubuntu-Regular', 'Ubuntu', sans-serif;font-size:229.167px;fill:rgb(116,116,116);">o</text>
        </g>
        <g transform="matrix(0.520406,0.853919,-0.853919,0.520406,4518.12,307.563)">
            <text x="1985.25px" y="4176.05px" style="font-family:'Ubuntu-Regular', 'Ubuntu', sans-serif;font-size:229.167px;fill:rgb(116,116,116);">r</text>
        </g>
        <g transform="matrix(0.598103,0.801419,-0.801419,0.598103,4270.68,75.515)">
            <text x="2060.05px" y="4295.83px" style="font-family:'Ubuntu-Regular', 'Ubuntu', sans-serif;font-size:229.167px;fill:rgb(116,116,116);">a</text>
        </g>
        <g transform="matrix(0.648857,0.76091,-0.76091,0.648857,4090.03,-80.5313)">
            <text x="2132.27px" y="4391.18px" style="font-family:'Ubuntu-Regular', 'Ubuntu', sans-serif;font-size:229.167px;fill:rgb(116,116,116);">l</text>
        </g>
        <g transform="matrix(0.678936,0.734197,-0.734197,0.678936,3956.61,-169.977)">
            <text x="2172.65px" y="4438.93px" style="font-family:'Ubuntu-Regular', 'Ubuntu', sans-serif;font-size:229.167px;fill:rgb(116,116,116);">l</text>
        </g>
        <g transform="matrix(0.739233,0.67345,-0.67345,0.739233,3633.25,-337.005)">
            <text x="2251.8px" y="4523.07px" style="font-family:'Ubuntu-Regular', 'Ubuntu', sans-serif;font-size:229.167px;fill:rgb(116,116,116);">y</text>
        </g>
        <g transform="matrix(0.79159,0.611053,-0.611053,0.79159,3297.79,-468.652)">
            <text x="2335.93px" y="4600.19px" style="font-family:'Ubuntu-Regular', 'Ubuntu', sans-serif;font-size:229.167px;fill:rgb(116,116,116);">o</text>
        </g>
        <g transform="matrix(0.840936,0.541134,-0.541134,0.840936,2922.58,-577.151)">
            <text x="2443.02px" y="4682.73px" style="font-family:'Ubuntu-Regular', 'Ubuntu', sans-serif;font-size:229.167px;fill:rgb(116,116,116);">u</text>
        </g>
        <g transform="matrix(0.880051,0.47488,-0.47488,0.880051,2563.7,-642.676)">
            <text x="2554.03px" y="4753.5px" style="font-family:'Ubuntu-Regular', 'Ubuntu', sans-serif;font-size:229.167px;fill:rgb(116,116,116);">r</text>
        </g>
        <g transform="matrix(0.921128,0.38926,-0.38926,0.921128,2087.29,-662.818)">
            <text x="2679.26px" y="4819.34px" style="font-family:'Ubuntu-Regular', 'Ubuntu', sans-serif;font-size:229.167px;fill:rgb(116,116,116);">c</text>
        </g>
        <g transform="matrix(0.947583,0.319508,-0.319508,0.947583,1698.36,-631.687)">
            <text x="2774.42px" y="4860.4px" style="font-family:'Ubuntu-Regular', 'Ubuntu', sans-serif;font-size:229.167px;fill:rgb(116,116,116);">o</text>
        </g>
        <g transform="matrix(0.971528,0.236925,-0.236925,0.971528,1244.39,-548.076)">
            <text x="2902.55px" y="4903.44px" style="font-family:'Ubuntu-Regular', 'Ubuntu', sans-serif;font-size:229.167px;fill:rgb(116,116,116);">d</text>
        </g>
        <g transform="matrix(0.98856,0.150831,-0.150831,0.98856,779.084,-401.161)">
            <text x="3034.01px" y="4935.17px" style="font-family:'Ubuntu-Regular', 'Ubuntu', sans-serif;font-size:229.167px;fill:rgb(116,116,116);">e</text>
        </g>
        <g transform="matrix(0.999231,0.0392225,-0.0392225,0.999231,196.98,-122.229)">
            <text x="3213.6px" y="4959.07px" style="font-family:'Ubuntu-Regular', 'Ubuntu', sans-serif;font-size:229.167px;fill:rgb(116,116,116);">a</text>
        </g>
        <g transform="matrix(0.99905,-0.0435755,0.0435755,0.99905,-213.138,149.959)">
            <text x="3333.16px" y="4963.89px" style="font-family:'Ubuntu-Regular', 'Ubuntu', sans-serif;font-size:229.167px;fill:rgb(116,116,116);">n</text>
        </g>
        <g transform="matrix(0.991948,-0.126646,0.126646,0.991948,-600.03,478.714)">
            <text x="3464.69px" y="4958.12px" style="font-family:'Ubuntu-Regular', 'Ubuntu', sans-serif;font-size:229.167px;fill:rgb(116,116,116);">d</text>
        </g>
        <g transform="matrix(0.969076,-0.246764,0.246764,0.969076,-1103.83,1053.31)">
            <text x="3650.57px" y="4930.73px" style="font-family:'Ubuntu-Regular', 'Ubuntu', sans-serif;font-size:229.167px;fill:rgb(116,116,116);">d</text>
        </g>
        <g transform="matrix(0.945276,-0.32627,0.32627,0.945276,-1390.76,1501.69)">
            <text x="3781.27px" y="4896.82px" style="font-family:'Ubuntu-Regular', 'Ubuntu', sans-serif;font-size:229.167px;fill:rgb(116,116,116);">a</text>
        </g>
        <g transform="matrix(0.91797,-0.39665,0.39665,0.91797,-1607.26,1943.06)">
            <text x="3894.13px" y="4857.43px" style="font-family:'Ubuntu-Regular', 'Ubuntu', sans-serif;font-size:229.167px;fill:rgb(116,116,116);">t</text>
        </g>
        <g transform="matrix(0.891488,-0.453044,0.453044,0.891488,-1752.57,2325.75)">
            <text x="3978.8px" y="4821.41px" style="font-family:'Ubuntu-Regular', 'Ubuntu', sans-serif;font-size:229.167px;fill:rgb(116,116,116);">a</text>
        </g>
        <g transform="matrix(0.832503,-0.554021,0.554021,0.832503,-1934.32,3082.86)">
            <text x="4131.34px" y="4740.45px" style="font-family:'Ubuntu-Regular', 'Ubuntu', sans-serif;font-size:229.167px;fill:rgb(116,116,116);">q</text>
        </g>
        <g transform="matrix(0.780745,-0.62485,0.62485,0.780745,-1984.68,3674.59)">
            <text x="4243.73px" y="4665.34px" style="font-family:'Ubuntu-Regular', 'Ubuntu', sans-serif;font-size:229.167px;fill:rgb(116,116,116);">u</text>
        </g>
        <g transform="matrix(0.725801,-0.687905,0.687905,0.725801,-1961.01,4246.51)">
            <text x="4346.27px" y="4583.13px" style="font-family:'Ubuntu-Regular', 'Ubuntu', sans-serif;font-size:229.167px;fill:rgb(116,116,116);">e</text>
        </g>
        <g transform="matrix(0.672623,-0.739985,0.739985,0.672623,-1872.65,4756.22)">
            <text x="4439.03px" y="4494.53px" style="font-family:'Ubuntu-Regular', 'Ubuntu', sans-serif;font-size:229.167px;fill:rgb(116,116,116);">s</text>
        </g>
        <g transform="matrix(0.621785,-0.783188,0.783188,0.621785,-1755.74,5201.82)">
            <text x="4507.96px" y="4418.76px" style="font-family:'Ubuntu-Regular', 'Ubuntu', sans-serif;font-size:229.167px;fill:rgb(116,116,116);">t</text>
        </g>
        <g transform="matrix(0.58665,-0.80984,0.80984,0.58665,-1633.07,5493.56)">
            <text x="4564.99px" y="4346.54px" style="font-family:'Ubuntu-Regular', 'Ubuntu', sans-serif;font-size:229.167px;fill:rgb(116,116,116);">i</text>
        </g>
        <g transform="matrix(0.534954,-0.844881,0.844881,0.534954,-1493.99,5886.28)">
            <text x="4600.01px" y="4300.26px" style="font-family:'Ubuntu-Regular', 'Ubuntu', sans-serif;font-size:229.167px;fill:rgb(116,116,116);">o</text>
        </g>
        <g transform="matrix(0.459462,-0.888197,0.888197,0.459462,-1192.11,6412.61)">
            <text x="4672.46px" y="4185.73px" style="font-family:'Ubuntu-Regular', 'Ubuntu', sans-serif;font-size:229.167px;fill:rgb(116,116,116);">n</text>
        </g>
        <g transform="matrix(0.391198,-0.920306,0.920306,0.391198,-863.651,6832.34)">
            <text x="4732.29px" y="4068.95px" style="font-family:'Ubuntu-Regular', 'Ubuntu', sans-serif;font-size:229.167px;fill:rgb(116,116,116);">s</text>
        </g>
    </g>
    <g transform="matrix(0.635255,0,0,0.635255,400.999,649.163)">
        <g id="twitter-3.svg" transform="matrix(0.13816,0,0,0.13816,924.339,2368.26)">
            <g transform="matrix(1,0,0,1,-1250,-1250)">
                <circle cx="1250" cy="1250" r="1250" style="fill:rgb(45,170,225);"/>
                <path d="M2051.48,752.772C1992.52,778.935 1929.19,796.621 1862.61,804.571C1930.57,763.879 1982.62,699.397 2007.2,622.653C1942.65,660.992 1872.01,687.984 1798.34,702.453C1738.38,638.548 1652.89,598.65 1558.31,598.65C1376.76,598.65 1229.52,745.828 1229.52,927.483C1229.52,953.222 1232.42,978.332 1237.99,1002.44C964.694,988.705 722.398,857.793 560.216,658.871C531.897,707.453 515.688,763.939 515.688,824.206C515.688,938.277 573.748,1038.92 661.969,1097.88C609.746,1096.26 558.662,1082.16 513.001,1056.77L513.001,1060.92C513.001,1220.26 626.333,1353.12 776.774,1383.34C749.138,1390.91 720.136,1394.86 690.132,1394.86C668.918,1394.86 648.336,1392.86 628.23,1389.08C670.076,1519.67 791.52,1614.74 935.374,1617.42C822.831,1705.64 681.023,1758.23 527.003,1758.23C500.475,1758.23 474.257,1756.65 448.519,1753.55C594.066,1846.88 766.88,1901.36 952.589,1901.36C1557.41,1901.36 1888.19,1400.29 1888.19,965.756C1888.19,951.49 1887.88,937.33 1887.19,923.222C1951.64,876.608 2007.27,818.888 2051.48,752.772Z" style="fill:white;fill-rule:nonzero;"/>
            </g>
        </g>
        <g transform="matrix(1,0,0,1,219.142,-1545.59)">
            <text x="983.982px" y="3999.6px" style="font-family:'Ubuntu-Regular', 'Ubuntu', sans-serif;font-size:291.667px;fill:rgb(26,89,127);">@hackyhourUW<tspan x="3097.69px " y="3999.6px ">A</tspan></text>
        </g>
    </g>
    <g transform="matrix(1,0,0,1,248.555,86.6574)">
        <g transform="matrix(0.234769,0,0,0.234769,1107.43,2394.31)">
            <g transform="matrix(4.16667,0,0,4.16667,-804.935,-422.222)">
                <path d="M600,596.531C409.015,596.531 254.19,492.84 254.19,364.932C254.19,237.023 409.015,133.333 600,133.333C790.986,133.333 945.81,237.023 945.81,364.932C945.81,492.84 790.986,596.531 600,596.531ZM652.932,223.881C507.767,223.881 390.087,294.768 390.087,382.211C390.087,469.655 507.767,540.542 652.932,540.542C798.097,540.542 905.226,492.078 905.226,382.211C905.226,272.379 798.097,223.881 652.932,223.881Z" style="fill:url(#_Linear1);"/>
            </g>
            <g transform="matrix(4.16667,0,0,4.16667,-804.935,-422.222)">
                <path d="M780.84,492.046C780.84,492.046 801.77,498.362 813.93,504.515C818.149,506.65 825.449,510.91 830.715,516.504C835.873,521.983 838.388,527.534 838.388,527.534L920.873,666.607L787.554,666.667L725.211,549.594C725.211,549.594 712.445,527.66 704.59,521.3C698.037,515.995 695.243,514.106 688.764,514.106L657.088,514.106L657.113,666.582L539.141,666.632L539.141,277.143L776.045,277.143C776.045,277.143 883.946,279.089 883.946,381.747C883.946,484.405 780.84,492.046 780.84,492.046ZM729.527,361.628L658.108,361.582L658.072,427.81L729.527,427.787C729.527,427.787 762.617,427.684 762.617,394.098C762.617,359.836 729.527,361.628 729.527,361.628Z" style="fill:url(#_Linear2);"/>
            </g>
        </g>
        <g transform="matrix(0.735614,0,0,0.735614,246.957,197.075)">
            <g id="path1948" transform="matrix(6.93761,0,0,6.93761,1286.33,1300.77)">
                <path d="M60.51,6.398C55.927,6.419 51.549,6.81 47.698,7.492C36.351,9.496 34.291,13.692 34.291,21.429L34.291,31.648L61.104,31.648L61.104,35.054L24.229,35.054C16.436,35.054 9.613,39.738 7.479,48.648C5.017,58.861 4.908,65.234 7.479,75.898C9.385,83.836 13.936,89.492 21.729,89.492L30.948,89.492L30.948,77.242C30.948,68.392 38.605,60.585 47.698,60.585L74.479,60.585C81.934,60.585 87.885,54.447 87.885,46.96L87.885,21.429C87.885,14.163 81.755,8.704 74.479,7.492C69.873,6.725 65.094,6.377 60.51,6.398ZM46.01,14.617C48.78,14.617 51.041,16.915 51.041,19.742C51.041,22.558 48.78,24.835 46.01,24.835C43.231,24.835 40.979,22.558 40.979,19.742C40.979,16.915 43.231,14.617 46.01,14.617Z" style="fill:url(#_Linear3);fill-rule:nonzero;"/>
            </g>
            <g id="path1950" transform="matrix(6.93761,0,0,6.93761,1286.33,1300.77)">
                <path d="M91.229,35.054L91.229,46.96C91.229,56.191 83.403,63.96 74.479,63.96L47.698,63.96C40.362,63.96 34.291,70.239 34.291,77.585L34.291,103.117C34.291,110.383 40.61,114.657 47.698,116.742C56.185,119.237 64.324,119.688 74.479,116.742C81.229,114.787 87.885,110.854 87.885,103.117L87.885,92.898L61.104,92.898L61.104,89.492L101.291,89.492C109.084,89.492 111.988,84.056 114.698,75.898C117.497,67.499 117.378,59.422 114.698,48.648C112.772,40.891 109.094,35.054 101.291,35.054L91.229,35.054ZM76.166,99.71C78.946,99.71 81.198,101.988 81.198,104.804C81.198,107.631 78.946,109.929 76.166,109.929C73.397,109.929 71.135,107.631 71.135,104.804C71.135,101.988 73.397,99.71 76.166,99.71Z" style="fill:url(#_Linear4);fill-rule:nonzero;"/>
            </g>
        </g>
    </g>
    <defs>
        <linearGradient id="_Linear1" x1="0" y1="0" x2="1" y2="0" gradientUnits="userSpaceOnUse" gradientTransform="matrix(691.619,463.198,-463.198,691.619,310.605,109.116)"><stop offset="0" style="stop-color:rgb(203,206,208);stop-opacity:1"/><stop offset="1" style="stop-color:rgb(132,131,139);stop-opacity:1"/></linearGradient>
        <linearGradient id="_Linear2" x1="0" y1="0" x2="1" y2="0" gradientUnits="userSpaceOnUse" gradientTransform="matrix(381.733,389.522,-389.522,381.733,536.587,278.496)"><stop offset="0" style="stop-color:rgb(39,109,195);stop-opacity:1"/><stop offset="1" style="stop-color:rgb(22,92,170);stop-opacity:1"/></linearGradient>
        <linearGradient id="_Linear3" x1="0" y1="0" x2="1" y2="0" gradientUnits="userSpaceOnUse" gradientTransform="matrix(61.3261,53.2723,-53.2723,61.3261,5.59137,6.39705)"><stop offset="0" style="stop-color:rgb(90,159,212);stop-opacity:1"/><stop offset="1" style="stop-color:rgb(48,105,152);stop-opacity:1"/></linearGradient>
        <linearGradient id="_Linear4" x1="0" y1="0" x2="1" y2="0" gradientUnits="userSpaceOnUse" gradientTransform="matrix(-21.8995,-31.2832,31.2832,-21.8995,75.5221,103.945)"><stop offset="0" style="stop-color:rgb(255,212,59);stop-opacity:1"/><stop offset="1" style="stop-color:rgb(255,232,115);stop-opacity:1"/></linearGradient>
    </defs>
</svg>
